<svg width="18" height="22" viewBox="0 0 18 22" fill="none" xmlns="http://www.w3.org/2000/svg">
<path id="Vector" d="M18 17.5V18.5H0V17.5L2 15.5V9.5C2 6.4 4.03 3.67 7 2.79V2.5C7 1.96957 7.21071 1.46086 7.58579 1.08579C7.96086 0.710714 8.46957 0.5 9 0.5C9.53043 0.5 10.0391 0.710714 10.4142 1.08579C10.7893 1.46086 11 1.96957 11 2.5V2.79C13.97 3.67 16 6.4 16 9.5V15.5L18 17.5ZM11 19.5C11 20.0304 10.7893 20.5391 10.4142 20.9142C10.0391 21.2893 9.53043 21.5 9 21.5C8.46957 21.5 7.96086 21.2893 7.58579 20.9142C7.21071 20.5391 7 20.0304 7 19.5" fill="white"/>
</svg>
