<svg width="46" height="43" viewBox="0 0 46 43" fill="none" xmlns="http://www.w3.org/2000/svg">
<g id="noto:folded-hands">
<path id="Vector" d="M35.0767 26.3173C31.7545 21.8359 28.6889 14.0858 27.9224 12.2415C27.156 10.3939 26.2771 5.69412 26.3017 3.50045C26.3158 2.14998 25.8834 1.73005 25.7498 1.69982C24.4596 1.39748 23.7529 1.31685 23.2291 2.31123C23.0639 2.62029 22.8775 3.5206 22.6771 4.76357C22.4978 3.69529 22.2307 2.83193 21.8439 2.31123C21.1724 1.40084 20.6135 1.39748 19.3232 1.69982C19.1896 1.73005 18.7572 2.15334 18.7713 3.50045C18.7924 5.69748 17.9135 10.3972 17.1506 12.2415C16.3842 14.0892 13.3185 21.8359 9.99276 26.3173C8.41776 28.4404 6.84979 30.0026 6.84979 30.0026L13.4557 38.8377C13.4557 38.8377 16.3385 35.4985 17.924 34.9308C20.2724 34.0842 22.533 32.8479 22.533 29.4583C22.533 32.8446 24.7935 34.0808 27.149 34.9274C28.7346 35.4951 31.6174 38.8344 31.6174 38.8344L38.2232 29.9992C38.2197 30.0026 36.6517 28.4371 35.0767 26.3173Z" fill="#FFCA28"/>
<path id="Vector_2" d="M28.5659 13.7533C28.1088 12.5506 27.2159 10.0848 26.9205 8.41523C26.6323 6.79601 26.4073 5.2171 26.3123 4.79046C26.112 3.85992 25.0362 3.9271 25.0362 3.9271C23.9745 3.91367 23.5842 4.54187 23.3557 4.75351C23.3733 4.46796 23.3627 3.91031 23.4436 3.47359C23.7143 2.03913 24.653 1.72335 25.2366 1.74687C25.5565 1.76031 25.7639 1.71328 25.662 1.61921C24.9412 0.970853 22.5541 1.43109 22.5541 3.4232H22.5014C22.5014 1.43109 20.1143 0.970853 19.3936 1.61921C19.2916 1.70992 19.4991 1.75695 19.819 1.74687C20.4026 1.72335 21.3448 2.04249 21.612 3.47359C21.6928 3.91031 21.6823 4.46796 21.6998 4.75351C21.4713 4.54187 21.0811 3.91031 20.0194 3.9271C20.0194 3.9271 18.9436 3.85992 18.7432 4.79046C18.6518 5.22046 18.4233 6.79937 18.135 8.41523C17.8291 10.1386 16.8412 12.8227 16.3772 14.0321C16.2682 14.321 16.6022 14.5797 16.8729 14.4184C17.0346 14.321 17.1893 14.1833 17.2983 13.9918C17.8784 12.9672 18.4127 10.7466 18.8487 8.44546C18.9717 7.80382 19.3409 5.95281 19.4569 5.54632C19.5377 5.26413 19.8717 4.95843 20.1776 4.97523C20.7014 5.00546 21.0916 5.04242 21.5662 6.36937C21.8827 7.25288 22.0162 8.82171 21.8229 11.3916C21.7245 12.7152 21.2323 16.1519 21.3061 17.8416C21.4327 20.7811 22.2659 21.6545 22.2659 29.7674C22.2659 30.1 22.526 30.2377 22.526 30.2377C22.526 30.2377 22.7791 30.1033 22.7862 29.7674C22.9057 22.407 23.4014 20.8919 23.7459 17.8416C23.9358 16.1552 23.3276 12.7152 23.2291 11.3916C23.0358 8.82171 23.1694 7.25288 23.4858 6.36937C23.9604 5.04242 24.3506 5.00546 24.8745 4.97523C25.1803 4.95843 25.5143 5.26413 25.5952 5.54632C25.7112 5.95281 26.0803 7.80718 26.2034 8.44546C26.6428 10.75 27.1631 12.7488 27.7397 13.7701C27.8205 13.9112 27.919 14.022 28.028 14.1127C28.2916 14.3244 28.6854 14.0623 28.5659 13.7533Z" fill="#EDA600"/>
<path id="Vector_3" d="M16.0116 37.0976C11.828 33.0999 10.4709 31.2388 8.76937 28.0709C8.41781 27.4158 7.35609 28.0743 7.35609 28.0743C6.09398 29.1929 5.02523 29.6935 3.65765 30.5501C6.90609 38.5085 11.8807 41.6327 11.8983 41.6562L15.9307 38.3506C16.3104 38.0382 16.3631 37.4335 16.0116 37.0976ZM29.0545 37.0976C33.2381 33.0999 34.5952 31.2388 36.2967 28.0709C36.6483 27.4158 37.71 28.0743 37.71 28.0743C38.9721 29.1929 40.0409 29.6935 41.4084 30.5501C38.16 38.5085 33.1854 41.6327 33.1678 41.6562L29.1354 38.3506C28.7557 38.0382 28.703 37.4335 29.0545 37.0976Z" fill="#2686C6"/>
</g>
</svg>
