<svg width="23" height="18" viewBox="0 0 23 18" fill="none" xmlns="http://www.w3.org/2000/svg">
<path id="Vector" d="M12.4688 0.803663C12.7688 0.50371 13.1757 0.335205 13.6 0.335205C14.0243 0.335205 14.4312 0.50371 14.7312 0.803663L21.9312 8.00366C22.2312 8.30371 22.3997 8.7106 22.3997 9.13486C22.3997 9.55913 22.2312 9.96602 21.9312 10.2661L14.7312 17.4661C14.4294 17.7575 14.0253 17.9188 13.6058 17.9151C13.1862 17.9115 12.7849 17.7432 12.4883 17.4466C12.1916 17.1499 12.0234 16.7486 12.0197 16.3291C12.0161 15.9096 12.1773 15.5054 12.4688 15.2037L16.8 10.7349H1.6C1.17565 10.7349 0.768687 10.5663 0.468629 10.2662C0.168571 9.96618 0 9.55921 0 9.13486C0 8.71052 0.168571 8.30355 0.468629 8.00349C0.768687 7.70344 1.17565 7.53486 1.6 7.53486H16.8L12.4688 3.06606C12.1688 2.76602 12.0003 2.35913 12.0003 1.93486C12.0003 1.5106 12.1688 1.10371 12.4688 0.803663Z" fill="#FDFFFC"/>
</svg>
